<?xml version="1.0" encoding="utf-8"?>
<!-- Generator: Adobe Illustrator 20.1.0, SVG Export Plug-In . SVG Version: 6.00 Build 0)  -->
<svg version="1.1" id="Layer_1" xmlns="http://www.w3.org/2000/svg" xmlns:xlink="http://www.w3.org/1999/xlink" x="0px" y="0px"
	 viewBox="0 0 687 183" enable-background="new 0 0 687 183" xml:space="preserve">
<g>
	
		<path fill="#FFFFFF" stroke="#333333" stroke-width="4.2521" stroke-linecap="round" stroke-linejoin="round" stroke-miterlimit="10" d="
		M632.6,115.6c0,0,6.6,0.5,8.8,1.2c0,0,0.4-7.6-7-9.1"/>
	
		<path fill="#FFFFFF" stroke="#333333" stroke-width="5.2359" stroke-linecap="round" stroke-linejoin="round" stroke-miterlimit="10" d="
		M629.4,124.2c0,0,7.7,2.5,10.2,3.9c0,0,2.6-9-5.8-12.9"/>
	<path fill="#666666" stroke="#333333" stroke-width="3.4906" stroke-linecap="round" stroke-miterlimit="10" d="M605,76.9
		c0,0,16.7,10.8,14.3,16.8s-8.1,7.8-8.1,7.8l-13.5-23.7L605,76.9z"/>
	
		<path fill="#666666" stroke="#333333" stroke-width="3.4906" stroke-linecap="round" stroke-linejoin="round" stroke-miterlimit="10" d="
		M601.9,79.9c0,0,7.7,5.6,6.2,12.2c0,0,11.5,6.1,14.8,9.7l1,14.5l-37.9-11l-1.1-23.5L601.9,79.9z"/>
	<path fill="#CCCCCC" stroke="#333333" stroke-width="6.9812" stroke-linecap="round" stroke-miterlimit="10" d="M576.5,79.4
		c0,0,2.7,22.1,3.1,25.1s1,8,8.8,9.5c7.8,1.5,28.4,5.6,32.6,10.6l3.7-14.9c0,0-7-9.7-25.3-11.8c0,0,0.5-10.9-3.4-13.4
		c0,0,13.7-1.3,17.7-4.2c4-2.9,4.9-12.7,4.9-12.7l-15.1-5.6l-29.4,12.9L576.5,79.4z"/>
	
		<path fill="#FFFFFF" stroke="#333333" stroke-width="8.7265" stroke-linecap="round" stroke-linejoin="round" stroke-miterlimit="10" d="
		M664.8,6.4c-26.5,5.9-37.2,12.3-47.5,18.8c-26.9,17.1-52.8,30.4-70.4,35.9S506.1,69,506.1,69c5.4,22.9,30.2,12.9,45.9,11.7
		l34.4-7.6c6.6-1.6,13.1-2.9,16.3-3.8c6.9-1.9,25.4,10.3,25.4,10.3c-6.1,7.2-15.5,27-15.5,27c-3.8,8.6-4.7,19.8-2.8,25.3
		c3.6,10.6,14.3,11.4,14.3,11.4c3.4-23,21.7-55.8,43.2-72.7c0,0,10.7-8.5,9.7-25.7"/>
	<path fill="#333333" d="M627.8,75c0,0,2.5-3.9,0-12.9c0,0,9.4,9.1,4.3,19.3"/>
</g>
<path fill="#FFA500" d="M8.4,45c-1.9-1.8-2.8-4-2.8-6.6s0.9-4.8,2.8-6.7c1.9-1.9,4.2-2.8,7-2.8c2.8,0,5.2,0.9,7,2.6
	c1.9,1.8,2.8,3.9,2.8,6.6c0,2.7-0.9,5-2.8,6.9c-1.9,1.9-4.2,2.8-7,2.8C12.6,47.7,10.3,46.8,8.4,45z M8.2,63.1h14.5V143H8.2V63.1z"/>
<path fill="#FFA500" d="M110.8,71.2c6,5.9,9,14.5,9,25.9v46h-14.5V98.7c0-7.7-1.9-13.6-5.6-17.5c-3.7-3.9-9-5.9-16-5.9
	c-7.8,0-14,2.3-18.5,6.9c-4.5,4.6-6.8,11.1-6.8,19.7V143H43.9V63.1h13.9v12.1c2.9-4.1,6.9-7.3,11.8-9.5c5-2.2,10.6-3.3,17-3.3
	C96.7,62.4,104.8,65.3,110.8,71.2z"/>
<path fill="#333333" d="M207.1,71.2c6,5.9,9,14.5,9,25.9v46h-14.5V98.7c0-7.7-1.9-13.6-5.6-17.5c-3.7-3.9-9-5.9-16-5.9
	c-7.8,0-14,2.3-18.5,6.9c-4.5,4.6-6.8,11.1-6.8,19.7V143h-14.5V63.1h13.9v12.1c2.9-4.1,6.9-7.3,11.8-9.5c5-2.2,10.6-3.3,17-3.3
	C193.1,62.4,201.1,65.3,207.1,71.2z"/>
<path fill="#333333" d="M309,107.9h-64.8c0.9,7,4,12.7,9.3,17c5.3,4.3,11.8,6.4,19.7,6.4c9.5,0,17.2-3.2,23.1-9.7l8,9.3
	c-3.6,4.2-8.1,7.4-13.5,9.7c-5.4,2.2-11.4,3.3-18,3.3c-8.4,0-15.9-1.7-22.5-5.2c-6.5-3.5-11.6-8.3-15.2-14.5
	c-3.6-6.2-5.4-13.3-5.4-21.1c0-7.7,1.7-14.7,5.2-21c3.5-6.2,8.2-11.1,14.3-14.6c6.1-3.5,12.9-5.2,20.6-5.2c7.6,0,14.4,1.7,20.4,5.2
	c6,3.5,10.7,8.3,14,14.6c3.4,6.2,5.1,13.4,5.1,21.4C309.3,104.6,309.2,106.1,309,107.9z M252.3,80.9c-4.7,4.2-7.4,9.8-8.2,16.6h51.3
	c-0.8-6.7-3.5-12.2-8.2-16.5c-4.7-4.3-10.5-6.4-17.4-6.4S257,76.7,252.3,80.9z"/>
<path fill="#333333" d="M394.9,107.9h-64.8c0.9,7,4,12.7,9.3,17c5.3,4.3,11.8,6.4,19.7,6.4c9.5,0,17.2-3.2,23.1-9.7l8,9.3
	c-3.6,4.2-8.1,7.4-13.5,9.7c-5.4,2.2-11.4,3.3-18,3.3c-8.4,0-15.9-1.7-22.5-5.2c-6.5-3.5-11.6-8.3-15.2-14.5
	c-3.6-6.2-5.4-13.3-5.4-21.1c0-7.7,1.7-14.7,5.2-21c3.5-6.2,8.2-11.1,14.3-14.6c6.1-3.5,12.9-5.2,20.6-5.2c7.6,0,14.4,1.7,20.4,5.2
	c6,3.5,10.7,8.3,14,14.6c3.4,6.2,5.1,13.4,5.1,21.4C395.2,104.6,395.1,106.1,394.9,107.9z M338.3,80.9c-4.7,4.2-7.4,9.8-8.2,16.6
	h51.3c-0.8-6.7-3.5-12.2-8.2-16.5c-4.7-4.3-10.5-6.4-17.4-6.4C348.8,74.6,343,76.7,338.3,80.9z"/>
<path fill="#333333" d="M513.7,52.1l-37.9,105.3l-13.1-4.7l4.3-11.9c-4.5,3.1-9.5,4.9-14.9,5.4c-5.4,0.5-10.9-0.2-16.5-2.2
	c-7.3-2.6-13.2-6.6-17.8-11.9c-4.6-5.3-7.5-11.4-8.7-18.4c-1.2-7-0.4-14.3,2.3-21.8c2.7-7.6,6.8-13.7,12.1-18.2
	C428.9,69,435,66.1,442,65c6.9-1.1,14-0.4,21.3,2.2c5.4,1.9,10,4.7,13.8,8.4c3.8,3.7,6.5,8,8.1,13.1l14.9-41.4L513.7,52.1z
	 M455.2,133.7c4.7-0.8,8.8-2.9,12.4-6.1c3.6-3.2,6.4-7.5,8.2-12.7c1.9-5.2,2.4-10.2,1.7-15c-0.7-4.8-2.6-9-5.7-12.6
	c-3.1-3.6-7-6.2-11.7-7.9c-4.8-1.7-9.5-2.2-14.2-1.4c-4.6,0.8-8.8,2.8-12.4,6c-3.7,3.2-6.4,7.4-8.3,12.6c-1.9,5.2-2.4,10.2-1.6,15
	c0.8,4.8,2.7,9,5.7,12.6c3,3.6,7,6.3,11.8,8C445.8,134.1,450.5,134.6,455.2,133.7z"/>
<path fill="#FFA500" d="M112.4,175.5H13c-4.1,0-7.4-3.3-7.4-7.4v0c0-4.1,3.3-7.4,7.4-7.4h99.4c4.1,0,7.4,3.3,7.4,7.4v0
	C119.7,172.2,116.4,175.5,112.4,175.5z"/>
<g>
</g>
<g>
</g>
<g>
</g>
<g>
</g>
<g>
</g>
<g>
</g>
<g>
</g>
<g>
</g>
<g>
</g>
<g>
</g>
<g>
</g>
<g>
</g>
<g>
</g>
<g>
</g>
<g>
</g>
</svg>
